<svg xmlns="http://www.w3.org/2000/svg" width="565" height="133" fill="none"><path fill="#9D89FC" d="M69.381 42.792a4.262 4.262 0 0 0-.263-4.72L40.313 0h55.521c1.852 0 3.601.875 4.748 2.373l24.662 32.237c2.087 2.729 2.308 6.508.554 9.474L100.8 86.37c-1.098 1.856-3.055 2.99-5.164 2.99H80.148l27.526-46.56a4.262 4.262 0 0 0-.27-4.729L91.089 16.625H73.285L86.97 34.614c2.075 2.727 2.29 6.496.54 9.456L59.614 91.255a4.262 4.262 0 0 0 .255 4.708L87.68 133H32.172c-1.859 0-3.615-.882-4.76-2.391L3.727 99.423c-2.071-2.727-2.285-6.493-.536-9.45l24.395-41.265c1.098-1.856 3.054-2.99 5.163-2.99H48.24l-26.912 45.52a4.261 4.261 0 0 0 .27 4.73l15.525 20.407h17.804l-12.894-16.95c-2.075-2.728-2.29-6.497-.54-9.457l27.89-47.176Z"/><path fill="#051A2F" d="M145 126.656V6.344h36.914c6.152 0 10.801 1.413 13.945 4.238 3.145 2.78 5.241 6.7 6.289 11.758 1.094 5.013 1.641 10.915 1.641 17.705 0 6.562-.843 11.803-2.529 15.723-1.641 3.919-4.763 6.63-9.365 8.134 3.782.775 6.425 2.666 7.929 5.674 1.55 2.962 2.324 6.813 2.324 11.553v45.527h-23.72v-47.1c0-3.508-.729-5.673-2.188-6.493-1.413-.866-3.714-1.3-6.904-1.3v54.893H145Zm24.473-75.742h5.81c3.327 0 4.99-3.623 4.99-10.87 0-4.693-.364-7.77-1.093-9.228-.729-1.458-2.097-2.187-4.102-2.187h-5.605v22.285Zm40.246 75.742V6.344h48.125v23.242h-23.653v23.447h22.696V75.66h-22.696v27.549h25.225v23.447h-49.697Zm66.769 0L261.654 6.276h22.901l8.818 81.894 7.861-81.895h22.901l-14.834 120.381h-32.813Zm52.688 0V6.344h48.125v23.242h-23.653v23.447h22.696V75.66h-22.696v27.549h25.225v23.447h-49.697Zm55.695 0V6.344h24.746l11.074 57.627V6.344h23.243v120.312h-23.516L408.387 66.5v60.156h-23.516Zm78.049 0V29.449h-14.287V6.344h52.637v23.105h-14.288v97.207H462.92Zm71.76 1.094c-9.616 0-16.976-2.894-22.08-8.682-5.059-5.833-7.588-14.241-7.588-25.224V36.695c0-10.3 2.506-18.115 7.519-23.447 5.059-5.332 12.442-7.998 22.149-7.998s17.067 2.666 22.08 7.998c5.058 5.332 7.588 13.148 7.588 23.447v57.149c0 10.983-2.552 19.391-7.657 25.224-5.058 5.788-12.395 8.682-22.011 8.682Zm.205-22.148c3.646 0 5.469-3.532 5.469-10.596v-58.72c0-5.925-1.778-8.888-5.333-8.888-4.01 0-6.015 3.031-6.015 9.092v58.653c0 3.737.456 6.425 1.367 8.066.912 1.595 2.415 2.393 4.512 2.393Z"/></svg>