<svg xmlns="http://www.w3.org/2000/svg" width="33" height="34" fill="none"><g clip-path="url(#a)"><path fill="#9D89FC" d="M17.748 10.94a1.089 1.089 0 0 0-.067-1.207L10.312 0h14.203c.474 0 .921.224 1.215.607l6.309 8.24a2.18 2.18 0 0 1 .142 2.423l-6.395 10.81a1.54 1.54 0 0 1-1.321.764h-3.962l7.041-11.903c.224-.378.196-.86-.07-1.209L23.302 4.25h-4.554l3.5 4.599c.531.697.587 1.66.139 2.417L15.25 23.328c-.223.377-.197.855.065 1.204L22.429 34H8.23a1.53 1.53 0 0 1-1.217-.611l-6.06-7.973A2.177 2.177 0 0 1 .816 23l6.24-10.548a1.538 1.538 0 0 1 1.321-.764h3.963L5.455 23.323a1.09 1.09 0 0 0 .07 1.209l3.971 5.217h4.554l-3.298-4.333a2.177 2.177 0 0 1-.138-2.418l7.134-12.06Z"/></g><defs><clipPath id="a"><path fill="#fff" d="M0 0h33v34H0z"/></clipPath></defs></svg>